<svg id="Layer_1" data-name="Layer 1" xmlns="http://www.w3.org/2000/svg" viewBox="0 0 48 48" fill="current"><title>11. Global</title><path d="M24,46.54A22.16,22.16,0,1,1,46.16,24.38,22.18,22.18,0,0,1,24,46.54ZM24,4.23A20.16,20.16,0,1,0,44.16,24.38,20.18,20.18,0,0,0,24,4.23Z"/><rect x="23" y="2.46" width="2" height="43.08"/><rect x="2.84" y="23.38" width="42.31" height="2"/><path d="M24.71,46.24l-1.42-1.4C30.76,37.26,34.44,29.92,34.2,23,34,16.56,30.32,10.15,23.34,4l1.32-1.5C32.08,9,36,15.92,36.2,23,36.45,30.42,32.59,38.25,24.71,46.24Z"/><path d="M23.29,46.24C15.41,38.25,11.55,30.42,11.8,23,12,15.92,15.92,9,23.34,2.48L24.66,4C17.68,10.15,14,16.56,13.8,23c-.24,6.9,3.44,14.24,10.91,21.82Z"/><path d="M24,15.07A30.18,30.18,0,0,1,8.37,10.43l1-1.72c9.8,5.86,19.32,5.86,29.11,0l1,1.72A30.17,30.17,0,0,1,24,15.07Z"/><path d="M9.4,40.05l-1-1.71c10.34-6.18,20.83-6.18,31.17,0l-1,1.71C28.72,34.2,19.2,34.2,9.4,40.05Z"/></svg>